<?xml version="1.0" encoding="UTF-8"?>
<svg id="Layer_1" xmlns="http://www.w3.org/2000/svg" version="1.1" viewBox="0 0 401.3 79.4">
  <!-- Generator: Adobe Illustrator 29.0.1, SVG Export Plug-In . SVG Version: 2.1.0 Build 192)  -->
  <defs>
    <style>
      .st0 {
        fill: #fff;
      }
    </style>
  </defs>
  <polygon points="399.7 79.4 399.7 34 365.7 34 365.7 0 0 0 0 79.4 399.7 79.4"/>
  <g>
    <polygon class="st0" points="16.5 22.7 16.5 11.3 11.3 11.3 11.3 34 16.5 34 16.5 22.7"/>
    <path class="st0" d="M24.6,24.9c0-1.6,1-2.8,2.6-2.8s2.6,1.2,2.6,2.8v9.1h4.9v-10c0-3.5-1.8-6.3-5.8-6.3s-3.6.7-4.5,2.2v-1.8h-4.7v15.9h4.9v-9.1h0Z"/>
    <path class="st0" d="M43.2,30.9c-1.7,0-2.4-1.1-2.5-2.1l-4.1.7c.1,1.8,1.7,5,6.7,5s6.3-2.6,6.3-5.4-1.6-4.3-4.9-5l-2.1-.4c-.7-.1-1.2-.5-1.2-1.2s.8-1.4,1.7-1.4c1.5,0,2.1.9,2.3,2l4-.7c-.2-1.9-1.8-4.7-6.4-4.7s-6.1,2.4-6.1,5.3,1.3,4.2,4.7,4.9l1.8.4c1.2.3,1.6.7,1.6,1.3s-.6,1.4-1.9,1.4h0Z"/>
    <path class="st0" d="M53.5,29.2c0,3.2,2,5.1,5.3,5.1s2.3-.3,2.5-.5v-4c-.3,0-.8.2-1.3.2-1.1,0-1.8-.4-1.8-1.7v-5.9h3.1v-4.2h-3.1v-4.6h-4.3v2.1c0,1.5-.8,2.6-2.5,2.6h-.8v4.2h2.8s0,6.8,0,6.8Z"/>
    <path class="st0" d="M66.2,16.1c1.6,0,2.9-1.3,2.9-2.9s-1.3-2.9-2.9-2.9-2.8,1.3-2.8,2.9,1.3,2.9,2.8,2.9Z"/>
    <polygon class="st0" points="63.8 34 68.7 34 68.7 25.9 68.7 18.1 63.8 18.1 63.8 34"/>
    <path class="st0" d="M72.9,29.2c0,3.2,2,5.1,5.3,5.1s2.3-.3,2.5-.5v-4c-.3,0-.8.2-1.3.2-1.1,0-1.8-.4-1.8-1.7v-5.9h3.1v-4.2h-3.1v-4.6h-4.3v2.1c0,1.5-.8,2.6-2.5,2.6h-.8v4.2h2.8s0,6.8,0,6.8Z"/>
    <path class="st0" d="M89.1,34.4c1.6,0,3.4-.6,4.2-2,0,.4,0,1.3.1,1.6h4.7c0-.3-.2-1.4-.2-2.9v-13.1h-4.9v9c0,1.6-1,2.7-2.7,2.7s-2.6-1.2-2.6-2.8v-9h-4.9v10c0,3.4,2.2,6.2,6,6.2h0Z"/>
    <path class="st0" d="M102.3,29.2c0,3.2,2,5.1,5.3,5.1s2.3-.3,2.5-.5v-4c-.3,0-.8.2-1.3.2-1.1,0-1.8-.4-1.8-1.7v-5.9h3.1v-4.2h-3.1v-4.6h-4.3v2.1c0,1.5-.8,2.6-2.5,2.6h-.8v4.2h2.8s0,6.8,0,6.8Z"/>
    <path class="st0" d="M119.6,34.5c4,0,6.6-2.3,7.3-5l-4.1-1.1c-.4,1.2-1.4,2.1-3.2,2.1s-3.5-1.3-3.6-3.1h11.1c0-.1,0-.8,0-1.5,0-5.1-3-8.2-8-8.2s-7.9,3.3-7.9,8.4,3.9,8.5,8.3,8.5h0ZM119.3,21.5c2.3,0,3.1,1.5,3.2,2.7h-6.4c0-1.2,1.1-2.7,3.2-2.7h0Z"/>
    <path class="st0" d="M144.2,34.5c4.8,0,8.4-3.5,8.4-8.4s-3.7-8.4-8.4-8.4-8.4,3.5-8.4,8.4,3.7,8.4,8.4,8.4ZM144.2,22.1c1.9,0,3.6,1.2,3.6,3.9s-1.7,4-3.6,4-3.6-1.3-3.6-4,1.8-3.9,3.6-3.9Z"/>
    <path class="st0" d="M156,34h4.9v-11.8h3.4v-4.1h-3.4v-1.2c0-1.8,1.2-2.1,2.1-2.1s1.2.1,1.4.2v-4c-.4-.2-1.3-.4-2.3-.4-3.9,0-6.1,2.5-6.1,6.1v1.4h-2.5v4.1h2.5v11.8Z"/>
    <g>
      <polygon class="st0" points="16.9 67.9 22 67.9 22 50.1 29 50.1 29 45.2 9.9 45.2 9.9 50.1 16.9 50.1 16.9 67.9"/>
      <path class="st0" d="M26.7,59.9c0,5.3,3.9,8.5,8.3,8.5s6.6-2.3,7.3-5l-4.1-1.2c-.5,1.2-1.4,2.1-3.2,2.1s-3.5-1.3-3.6-3.1h11.1c0,0,0-.8,0-1.5,0-5.1-3-8.2-8-8.2s-7.9,3.3-7.9,8.4h0ZM34.7,55.4c2.3,0,3.1,1.5,3.2,2.7h-6.4c.1-1.2,1.1-2.7,3.2-2.7h0Z"/>
      <path class="st0" d="M52.3,68.4c4.2,0,6.9-2.8,7.6-5.5l-4.3-1.3c-.3,1.2-1.4,2.4-3.3,2.4s-3.7-1.4-3.7-3.9,1.6-4,3.7-4,2.8,1.2,3.2,2.4l4.3-1.3c-.7-2.8-3.3-5.5-7.6-5.5s-8.4,3.5-8.4,8.4,3.8,8.4,8.5,8.4h0Z"/>
      <path class="st0" d="M76.7,67.9v-10c0-3.5-1.9-6.3-6-6.3s-3.1.5-4.1,1.4v-8.3h-4.9v23.2h4.9v-9.3c0-1.5,1.1-2.6,2.6-2.6s2.6,1.2,2.6,2.8v9.2h4.9Z"/>
      <path class="st0" d="M94.7,67.9v-10c0-3.5-1.8-6.3-5.8-6.3s-3.6.7-4.4,2.2v-1.8h-4.7v15.9h4.9v-9.1c0-1.6,1-2.8,2.6-2.8s2.6,1.2,2.6,2.8v9.1h4.9Z"/>
      <path class="st0" d="M105.1,68.4c4.8,0,8.4-3.5,8.4-8.4s-3.7-8.4-8.4-8.4-8.4,3.5-8.4,8.4,3.7,8.4,8.4,8.4ZM105.1,56c1.9,0,3.6,1.2,3.6,3.9s-1.7,4-3.6,4-3.6-1.3-3.6-4,1.8-3.9,3.6-3.9Z"/>
      <polygon class="st0" points="115.7 67.9 120.6 67.9 120.6 56.3 120.6 44.8 115.7 44.8 115.7 67.9"/>
      <path class="st0" d="M122.7,60c0,4.9,3.7,8.4,8.4,8.4s8.4-3.5,8.4-8.4-3.7-8.4-8.4-8.4-8.4,3.5-8.4,8.4ZM131.1,56c1.9,0,3.6,1.2,3.6,3.9s-1.7,4-3.6,4-3.6-1.3-3.6-4,1.8-3.9,3.6-3.9Z"/>
      <path class="st0" d="M148.5,70.2c-1.8,0-3.1-1.1-3.4-2.7l-4.3,1.2c.4,2.8,3.4,5.7,7.9,5.7s8.5-4,8.5-8.5v-13.9h-4.6v1.7c-.4-.8-1.8-2-4.4-2-4.4,0-7.4,3.6-7.4,7.8s3.2,7.7,7.4,7.7,3.7-.9,4.2-1.8v.7c0,2.9-1.5,4.1-3.9,4.1h0ZM149.1,63c-1.9,0-3.4-1.3-3.4-3.5s1.6-3.5,3.4-3.5,3.4,1.3,3.4,3.5-1.4,3.5-3.4,3.5Z"/>
      <polygon class="st0" points="158.5 52 165.2 65.8 161.6 74 166.7 74 176.4 52 171.3 52 167.8 60.5 163.9 52 158.5 52"/>
    </g>
    <g>
      <path class="st0" d="M193,45.4h-8.2v22.7h8.2c6.8,0,11.4-4.3,11.4-11.3s-4.6-11.3-11.4-11.3h0ZM192.7,63.3h-2.9v-13.1h2.9c3.5,0,6.3,2,6.3,6.6s-2.9,6.6-6.3,6.6Z"/>
      <path class="st0" d="M221.4,52.1h-4.9v9c0,1.6-1,2.7-2.6,2.7s-2.6-1.2-2.6-2.8v-9h-4.9v10c0,3.4,2.2,6.2,6,6.2s3.4-.6,4.2-1.9c0,.4,0,1.3.1,1.6h4.7c0-.3-.2-1.4-.2-2.8v-13h0Z"/>
      <polygon class="st0" points="219.4 45.4 214 45.4 211.1 50.2 214.9 50.2 219.4 45.4"/>
      <path class="st0" d="M233.8,51.7c-1.6,0-3.6.7-4.4,2.2v-1.8h-4.7v15.9h4.9v-9.1c0-1.6,1-2.8,2.6-2.8s2.6,1.2,2.6,2.8v9.1h4.9v-10c0-3.5-1.8-6.3-5.8-6.3h0Z"/>
      <polygon class="st0" points="255.2 45.4 250.1 45.4 250.1 68 265 68 265 63.2 255.2 63.2 255.2 45.4"/>
      <path class="st0" d="M281.1,57.8c0-3.3-1.9-6.1-7-6.1s-6.8,3-7,5.3l4.2.9c.1-1.2,1-2.3,2.7-2.3s2.3.8,2.3,1.7-.3,1-1.1,1.1l-3.7.6c-2.6.4-4.7,2-4.7,4.8s2,4.8,5.5,4.8,3.6-.9,4.5-2.2c0,1.1.1,1.7.2,1.8h4.4c0-.2-.2-1.2-.2-2.5v-7.8h0ZM276.4,61.8c0,2.5-1.5,3.2-2.9,3.2s-1.9-.8-1.9-1.6.8-1.6,1.8-1.8l3-.5s0,.7,0,.7Z"/>
      <path class="st0" d="M291.5,51.7c-4.7,0-8.4,3.5-8.4,8.4s3.7,8.4,8.4,8.4,8.4-3.5,8.4-8.4-3.7-8.4-8.4-8.4ZM291.5,64c-1.8,0-3.6-1.3-3.6-4s1.8-3.9,3.6-3.9,3.6,1.2,3.6,3.9-1.7,4-3.6,4Z"/>
      <path class="st0" d="M313,53.8c-.5-.8-1.8-2-4.4-2-4.4,0-7.4,3.6-7.4,7.8s3.2,7.7,7.4,7.7,3.7-.9,4.2-1.8v.7c0,2.9-1.5,4.1-3.9,4.1s-3.1-1.1-3.4-2.7l-4.3,1.2c.5,2.8,3.4,5.7,7.9,5.7s8.5-4,8.5-8.5v-13.9h-4.6v1.7h0ZM309.5,63.1c-2,0-3.4-1.3-3.4-3.5s1.6-3.5,3.4-3.5,3.4,1.3,3.4,3.5-1.4,3.5-3.4,3.5Z"/>
      <path class="st0" d="M329.3,51.7c-1.4,0-3.1.5-4.1,1.4v-8.3h-4.9v23.2h4.9v-9.3c.1-1.5,1.1-2.6,2.6-2.6s2.6,1.2,2.6,2.8v9.2h4.9v-10c0-3.5-1.9-6.3-6-6.3h0Z"/>
      <path class="st0" d="M351.8,57.8c0-3.3-1.9-6.1-7-6.1s-6.8,3-7,5.3l4.2.9c.1-1.2,1-2.3,2.7-2.3s2.3.8,2.3,1.7-.3,1-1.1,1.1l-3.7.6c-2.6.4-4.7,2-4.7,4.8s2,4.8,5.5,4.8,3.6-.9,4.5-2.2c0,1.1.1,1.7.2,1.8h4.4c0-.2-.2-1.2-.2-2.5v-7.8h0ZM347,61.8c0,2.5-1.5,3.2-2.9,3.2s-1.9-.8-1.9-1.6.8-1.6,1.8-1.8l3-.5s0,.7,0,.7Z"/>
      <polygon class="st0" points="354.8 68 359.6 68 359.6 60 359.6 52.1 354.8 52.1 354.8 68"/>
      <path class="st0" d="M357.1,44.4c-1.5,0-2.8,1.3-2.8,2.8s1.3,2.8,2.8,2.8,2.9-1.3,2.9-2.8-1.3-2.8-2.9-2.8Z"/>
      <path class="st0" d="M367.4,54.3v-2.1h-4.7v15.9h4.9v-6.9c0-3.2,1.8-4.3,3.7-4.3s1,0,1.5.2v-4.8c-.3,0-.8-.2-1.3-.2-1.3,0-3.3.5-4.1,2.3h0Z"/>
      <path class="st0" d="M389.6,59.8c0-5.1-3-8.2-8-8.2s-7.9,3.3-7.9,8.4,3.9,8.5,8.3,8.5,6.6-2.3,7.3-5l-4.1-1.2c-.5,1.2-1.4,2.1-3.2,2.1s-3.5-1.3-3.6-3.1h11.1c0,0,.1-.8.1-1.5h0ZM378.5,58.2c.1-1.2,1.1-2.7,3.2-2.7s3.1,1.5,3.2,2.7h-6.4Z"/>
    </g>
    <path class="st0" d="M235.2,34h8.2c6.8,0,11.4-4.3,11.4-11.3s-4.6-11.4-11.4-11.4h-8.2v22.7h0ZM240.3,16.1h2.9c3.5,0,6.3,2,6.3,6.6s-2.9,6.6-6.3,6.6h-2.9v-13.1Z"/>
    <path class="st0" d="M264.6,34.5c4,0,6.6-2.3,7.3-5l-4.1-1.1c-.5,1.2-1.4,2.1-3.2,2.1s-3.5-1.3-3.6-3.1h11.1c0-.1.1-.8.1-1.5,0-5.1-3-8.2-8-8.2s-7.9,3.3-7.9,8.4,3.9,8.5,8.3,8.5h0ZM264.3,21.5c2.3,0,3.1,1.5,3.2,2.7h-6.4c.1-1.2,1.1-2.7,3.2-2.7h0Z"/>
    <path class="st0" d="M279.9,30.9c-1.7,0-2.4-1.1-2.5-2.1l-4.1.7c.1,1.8,1.7,5,6.7,5s6.3-2.6,6.3-5.4-1.6-4.3-4.9-5l-2.1-.4c-.7-.1-1.2-.5-1.2-1.2s.8-1.4,1.7-1.4c1.5,0,2.1.9,2.3,2l4-.7c-.2-1.9-1.8-4.7-6.4-4.7s-6.1,2.4-6.1,5.3,1.3,4.2,4.7,4.9l1.8.4c1.2.3,1.6.7,1.6,1.3s-.6,1.4-1.9,1.4h0Z"/>
    <polygon class="st0" points="293.4 18.1 288.6 18.1 288.6 34 293.4 34 293.4 26.1 293.4 18.1"/>
    <path class="st0" d="M288.2,13.3c0,1.6,1.3,2.9,2.8,2.9s2.9-1.3,2.9-2.9-1.3-2.9-2.9-2.9-2.8,1.3-2.8,2.9Z"/>
    <path class="st0" d="M303.2,36.3c-1.8,0-3.1-1.1-3.4-2.7l-4.3,1.2c.5,2.8,3.4,5.7,7.9,5.7s8.5-4,8.5-8.5v-13.9h-4.6v1.7c-.5-.8-1.8-2-4.4-2-4.4,0-7.4,3.6-7.4,7.8s3.2,7.7,7.4,7.7,3.7-.9,4.2-1.8v.7c0,2.9-1.5,4.1-3.9,4.1h0ZM303.8,29.1c-2,0-3.4-1.3-3.4-3.5s1.6-3.5,3.4-3.5,3.4,1.3,3.4,3.5-1.4,3.5-3.4,3.5Z"/>
    <path class="st0" d="M319.7,19.9v-1.8h-4.7v15.9h4.9v-9.1c0-1.6,1-2.8,2.6-2.8s2.6,1.2,2.6,2.8v9.1h4.9v-10c0-3.5-1.8-6.3-5.8-6.3s-3.6.7-4.5,2.2h0Z"/>
    <polygon class="st0" points="355.1 22.5 349 22.5 349 16.3 345 16.3 345 22.5 338.9 22.5 338.9 26.5 345 26.5 345 32.7 349 32.7 349 26.5 355.1 26.5 355.1 22.5"/>
    <path class="st0" d="M220.1,31.2c0,1.6,1.1,2.9,2.9,2.9s.7,0,.9-.2c0,1.9-1.8,3.2-3.2,3.5v2.3c2.6-.3,6.1-2.4,6.1-7.4s-1.2-4-3.4-4-3.2,1.3-3.2,3h0Z"/>
    <path class="st0" d="M179.2,29.4h8.8l1.6,4.6h5.5l-8.4-22.7h-5.9l-8.5,22.7h5.3l1.6-4.6ZM183.6,17l2.7,7.8h-5.5l2.8-7.8Z"/>
    <path class="st0" d="M211,13.5v2.1c0,1.5-.8,2.6-2.5,2.6h-.8v4.2h2.8v6.8c0,3.2,2,5.1,5.3,5.1s2.3-.3,2.5-.5v-4c-.3,0-.8.2-1.3.2-1.1,0-1.8-.4-1.8-1.7v-5.9h3.1v-4.2h-3.1v-4.6h-4.4,0Z"/>
    <path class="st0" d="M196.2,18.1v15.9h4.9v-7.3c0-3.2,1.8-4.3,3.7-4.3h1.6v-4.3h-1.3c-1.3,0-3.3.4-4.1,2.1v-2.1h-4.7Z"/>
  </g>
</svg>