<?xml version="1.0" encoding="utf-8"?>
<!-- Generator: Adobe Illustrator 25.2.1, SVG Export Plug-In . SVG Version: 6.00 Build 0)  -->
<svg version="1.1" id="Layer_1" xmlns="http://www.w3.org/2000/svg" xmlns:xlink="http://www.w3.org/1999/xlink" x="0px" y="0px"
	 viewBox="0 0 100 100" style="enable-background:new 0 0 100 100;" xml:space="preserve">
<style type="text/css">
	.st0{fill:#FFFFFF;}
</style>
<path class="st0" d="M56.4,38.2c0.5-3.8-0.2-8,1.8-9.8c1.8-1.8,6.3-1.1,9.8-1.4c0-4,0-8,0-13.2c-6.5,0-4.9,0-11,0
	c-14.3,0-14.8,8.1-15.2,13.4c-0.2,3.6,0,7.2,0,11c-2.7,0.2-4.9-0.2-7.4,0c0,4.2,0,9,0,13.2c2.5,0.2,4.7-0.2,7.2,0
	c0,12.1,0,24,0,36.5c4.3,0,8,0,11.6,0c1.1,0,2.2-0.2,3.6-0.2c0-12.3,0-23.9,0-36.3c3.4,0,6.5,0,10.1,0c0.4-4.2,0.7-8.9,1.3-13.2
	C64.3,38.2,60.9,38.2,56.4,38.2z"/>
</svg>
