<?xml version="1.0" encoding="utf-8"?>
<!-- Generator: Adobe Illustrator 25.2.1, SVG Export Plug-In . SVG Version: 6.00 Build 0)  -->
<svg version="1.1" id="Layer_1" xmlns="http://www.w3.org/2000/svg" xmlns:xlink="http://www.w3.org/1999/xlink" x="0px" y="0px"
	 viewBox="0 0 100 100" style="enable-background:new 0 0 100 100;" xml:space="preserve">
<style type="text/css">
	.st0{fill:#FFFFFF;}
</style>
<path class="st0" d="M61.3,51.2c-0.3,6-4.9,10.5-11,10.5c-5.9,0-10.8-5-10.6-10.8c0-5.9,5-10.8,10.8-10.8
	C56.6,40.1,61.4,45.1,61.3,51.2z M82.9,67.9c-0.5,8.9-6.4,14.9-15.2,15.4c-11.3,0.9-22.8,0.9-34.1,0.2c-9.7-0.5-15.5-7.7-16-17.4
	c-0.2-5,0-9.9,0-14.9S17.2,41,17.6,36c0.6-10.4,7.2-17.4,17.6-17.8c10-0.4,20.1-0.4,30.1,0c10.2,0.4,17.1,6.3,17.8,16.5
	C83.8,45.6,83.6,56.8,82.9,67.9z M67.4,51.3c0.1-9.5-7.5-17.2-17-17.2c-9.3,0-16.9,7.4-16.9,16.7s7.4,16.9,16.7,17
	C59.3,68,67.2,60.4,67.4,51.3z M71.2,31.6c0-2-1.6-3.6-3.6-3.6c-2,0-3.6,1.6-3.6,3.6s1.6,3.6,3.6,3.6C69.6,35.2,71.2,33.6,71.2,31.6
	z"/>
</svg>
