<?xml version="1.0" encoding="utf-8"?>
<!-- Generator: Adobe Illustrator 24.0.3, SVG Export Plug-In . SVG Version: 6.00 Build 0)  -->
<svg version="1.0" id="Layer_1" xmlns="http://www.w3.org/2000/svg" xmlns:xlink="http://www.w3.org/1999/xlink" x="0px" y="0px"
	 viewBox="0 0 100 100" style="enable-background:new 0 0 100 100;" xml:space="preserve">
<style type="text/css">
	.st0{fill:#FFFFFF;}
	.st1{fill:#231F20;}
	.st2{fill:none;stroke:#FFFFFF;stroke-width:2;stroke-miterlimit:10;}
</style>
<g>
	<path class="st0" d="M54.46,39.29c0.2-0.31,0.4-0.62,0.6-0.93c1.18-1.79,2.76-3.16,4.62-4.2c2.25-1.26,4.68-1.87,7.26-1.93
		c2.63-0.06,5.19,0.2,7.69,1.09c2.8,0.99,4.95,2.77,6.47,5.31c1.21,2.04,1.87,4.28,2.23,6.6c0.23,1.48,0.42,2.97,0.45,4.47
		c0.09,3.54,0.1,7.07,0.11,10.61c0.01,5.42,0,10.85,0,16.27c0,0.19,0,0.39,0,0.66c-0.2,0-0.37,0-0.55,0c-4.22,0-8.44,0-12.65,0
		c-0.59,0-0.6,0-0.6-0.59c0-7.64,0.01-15.28-0.01-22.91c0-1.99-0.19-3.95-0.98-5.81c-0.93-2.2-2.62-3.35-4.97-3.61
		c-1.35-0.15-2.67-0.04-3.96,0.33c-2.24,0.65-3.63,2.18-4.41,4.33c-0.52,1.45-0.8,2.95-0.81,4.49c-0.04,7.69-0.06,15.39-0.09,23.08
		c0,0.77,0.07,0.68-0.67,0.68c-4.16,0-8.32,0-12.47,0.01c-0.42,0-0.57-0.1-0.57-0.55c0.01-14.3,0.01-28.59,0-42.89
		c0-0.43,0.13-0.57,0.57-0.57c4.01,0.01,8.01,0.01,12.02,0c0.46,0,0.59,0.15,0.59,0.6c-0.02,1.66-0.01,3.31-0.01,4.97
		c0,0.15,0.02,0.3,0.03,0.46C54.39,39.28,54.43,39.29,54.46,39.29z"/>
	<path class="st0" d="M19.01,77.24c0-0.24,0-0.42,0-0.6c0-14.25,0-28.5,0-42.75c0-0.64,0-0.64,0.64-0.64c4.14,0,8.29,0,12.43,0
		c0.64,0,0.64,0,0.64,0.62c0,14.27,0,28.53,0.01,42.8c0,0.46-0.12,0.58-0.58,0.58c-4.2-0.02-8.41-0.01-12.61-0.01
		C19.38,77.24,19.23,77.24,19.01,77.24z"/>
	<path class="st0" d="M25.88,11.45c4.36-0.02,7.98,3.47,7.98,7.93c0,4.48-3.42,7.98-8.01,8.01c-4.5,0.02-7.93-3.6-7.95-8.01
		C17.9,15.07,21.53,11.37,25.88,11.45z"/>
</g>
</svg>
