<?xml version="1.0" encoding="utf-8"?>
<!-- Generator: Adobe Illustrator 24.0.3, SVG Export Plug-In . SVG Version: 6.00 Build 0)  -->
<svg version="1.0" id="Layer_1" xmlns="http://www.w3.org/2000/svg" xmlns:xlink="http://www.w3.org/1999/xlink" x="0px" y="0px"
	 viewBox="0 0 100 100" style="enable-background:new 0 0 100 100;" xml:space="preserve">
<style type="text/css">
	.st0{fill:#FFFFFF;}
	.st1{fill:#231F20;}
	.st2{fill:none;stroke:#FFFFFF;stroke-width:2;stroke-miterlimit:10;}
</style>
<g id="jSUj39_15_">
	<g>
		<path class="st0" d="M55.94,81.57c-2.59,0-5.18,0-7.77,0c-0.12-0.01-0.24-0.04-0.37-0.04c-3.32-0.07-6.64-0.08-9.96-0.21
			c-4.22-0.16-8.43-0.4-12.64-0.64c-2.18-0.13-4.36-0.33-6.49-0.82c-4.39-1-7.26-3.67-8.45-8.03C9.48,68.95,9.21,65.97,9,63
			c-0.2-2.98-0.3-5.98-0.44-8.96c-0.01-0.26-0.04-0.51-0.06-0.77c0-1.42,0-2.84,0-4.26c0.02-0.16,0.05-0.31,0.05-0.47
			c0.08-3.76,0.25-7.51,0.63-11.26c0.23-2.32,0.47-4.64,1.1-6.89c1.15-4.12,3.8-6.82,7.95-7.94c2.05-0.55,4.17-0.71,6.28-0.85
			c3.11-0.22,6.22-0.43,9.34-0.53c4.84-0.16,9.68-0.31,14.52-0.32c5.75-0.02,11.51,0.04,17.26,0.19c4.38,0.11,8.75,0.4,13.12,0.65
			c2.19,0.12,4.38,0.34,6.53,0.82c4.11,0.91,6.92,3.35,8.25,7.35c0.48,1.44,0.72,2.97,0.94,4.48c0.25,1.64,0.49,3.31,0.5,4.96
			c0.05,6.96,0.02,13.91,0.02,20.87c0,1.75,0.02,3.51-0.19,5.26c-0.26,2.19-0.47,4.39-1.05,6.52c-1.13,4.19-3.8,6.92-8.02,7.96
			c-1.77,0.44-3.61,0.64-5.44,0.78c-3.42,0.27-6.85,0.49-10.28,0.62c-4.29,0.16-8.58,0.21-12.87,0.31
			C56.75,81.52,56.34,81.55,55.94,81.57z M66,51.14c-7.58-4.36-15.11-8.69-22.66-13.04c0,8.72,0,17.37,0,26.08
			C50.9,59.83,58.42,55.5,66,51.14z"/>
	</g>
</g>
</svg>
